<?xml version="1.0" standalone="no"?>
<!DOCTYPE svg PUBLIC "-//W3C//DTD SVG 20010904//EN"
 "http://www.w3.org/TR/2001/REC-SVG-20010904/DTD/svg10.dtd">
<svg version="1.0" xmlns="http://www.w3.org/2000/svg"
 width="512.000000pt" height="512.000000pt" viewBox="0 0 512.000000 512.000000"
 preserveAspectRatio="xMidYMid meet">

<g transform="translate(0.000000,512.000000) scale(0.100000,-0.100000)"
fill="#000000" stroke="none">
<path d="M1853 4669 c-28 -11 -70 -36 -92 -57 -22 -20 -128 -165 -234 -322
l-194 -285 -77 -3 -76 -3 0 48 c0 69 -16 118 -53 160 -53 60 -69 63 -337 63
-217 0 -245 -2 -278 -19 -71 -36 -102 -92 -102 -184 l0 -65 -102 -4 c-91 -3
-109 -7 -156 -33 -58 -32 -91 -65 -125 -129 l-22 -41 0 -1445 0 -1445 27 -51
c33 -63 95 -118 156 -138 26 -9 79 -16 122 -16 l77 0 7 -51 c12 -92 64 -165
141 -200 34 -16 67 -19 218 -19 189 0 212 5 227 46 9 22 14 24 85 24 59 0 75
-3 75 -15 0 -8 10 -23 22 -35 22 -20 25 -20 1702 -20 1609 0 1683 1 1721 19
77 35 129 108 141 200 l7 51 77 0 c43 0 96 7 122 16 61 20 123 75 156 138 l27
51 0 1445 0 1445 -30 53 c-32 59 -66 91 -129 125 -41 22 -48 22 -605 27 l-564
5 -198 290 c-109 160 -214 305 -235 322 -20 18 -61 42 -91 53 -50 19 -77 20
-373 20 -307 0 -321 -1 -340 -20 -27 -27 -27 -83 2 -110 21 -19 34 -20 323
-20 292 0 302 -1 345 -22 39 -20 64 -51 211 -268 l167 -245 -1036 -3 c-569 -1
-1037 0 -1039 2 -4 4 300 452 330 485 42 45 73 51 282 51 l196 0 26 26 c20 20
24 31 19 57 -12 64 -24 67 -260 66 -186 0 -217 -2 -263 -20z m-835 -611 l3
-58 -231 0 -230 0 0 48 c0 26 5 53 12 60 9 9 69 12 228 10 l215 -3 3 -57z
m3880 -228 c67 -41 72 -61 72 -292 l0 -208 -743 0 -742 0 -55 46 c-411 340
-984 411 -1457 180 -102 -49 -215 -123 -287 -186 l-47 -40 -745 0 -744 0 0
208 c0 233 6 259 71 294 32 17 125 18 2339 18 2282 0 2305 0 2338 -20z m-2104
-315 c412 -85 757 -386 900 -783 14 -40 35 -118 46 -175 21 -106 40 -137 81
-137 17 0 19 -8 19 -70 0 -54 -3 -70 -14 -70 -8 0 -26 -10 -41 -22 -21 -19
-28 -39 -41 -118 -85 -532 -526 -945 -1070 -1002 -619 -64 -1192 375 -1301
997 -23 135 -14 368 21 497 58 217 158 391 315 549 193 193 430 312 696 348
95 13 292 6 389 -14z"/>
<path d="M4280 3663 c-51 -19 -68 -85 -30 -123 18 -18 33 -20 169 -20 l150 0
20 26 c34 43 26 86 -20 109 -20 11 -61 15 -151 14 -68 0 -130 -3 -138 -6z"/>
<path d="M2383 3345 c-214 -39 -397 -136 -553 -295 -140 -142 -234 -318 -275
-515 -22 -106 -22 -294 0 -400 65 -310 267 -575 545 -715 641 -323 1412 103
1479 818 39 421 -183 822 -559 1012 -192 97 -430 133 -637 95z m384 -165 c257
-61 468 -236 582 -482 61 -131 76 -201 76 -363 0 -162 -15 -232 -76 -363 -146
-315 -443 -505 -789 -505 -395 0 -732 256 -842 640 -33 113 -33 343 0 456 113
394 478 661 877 641 50 -2 127 -13 172 -24z"/>
<path d="M2420 2964 c-268 -57 -484 -307 -498 -575 -4 -80 -3 -88 19 -108 59
-55 129 -6 129 92 0 66 35 167 82 237 74 112 200 190 338 211 41 6 85 13 98
15 31 6 53 58 40 94 -17 51 -83 61 -208 34z"/>
</g>
</svg>
